<svg width="239" height="180" viewBox="0 0 239 180" fill="none" xmlns="http://www.w3.org/2000/svg">
<path d="M24.465 60.17C23.9017 60.17 23.62 59.6933 23.62 58.74C23.62 58.48 23.6633 58.2417 23.75 58.025C23.8367 57.8083 24.075 57.7 24.465 57.7H29.34C29.4267 56.6167 29.5567 55.295 29.73 53.735C29.9033 52.1317 30.0767 50.3767 30.25 48.47C30.6833 43.7033 30.9 39.3917 30.9 35.535V19.74L26.935 20.325L16.21 27.215C16.1667 27.215 16.1233 27.3233 16.08 27.54C16.08 27.7133 16.0367 27.8 15.95 27.8C15.4733 27.8 15.0617 27.5833 14.715 27.15C14.3683 26.7167 14.195 26.2617 14.195 25.785L18.55 14.345L25.895 16.62C27.1083 17.01 28.9067 17.205 31.29 17.205L36.295 17.075L42.6 17.14C45.7633 17.14 48.3633 16.6633 50.4 15.71C50.79 15.5367 51.115 15.3633 51.375 15.19C51.5917 14.9733 51.83 14.7783 52.09 14.605C52.5667 14.2583 53.1083 14.085 53.715 14.085C54.3217 14.085 54.7117 14.215 54.885 14.475L59.305 23.51C59.305 23.7267 59.0883 24.0517 58.655 24.485C58.265 24.875 58.07 25.0483 58.07 25.005L50.53 21.82L45.135 19.74C44.615 19.74 44.1817 19.87 43.835 20.13C43.5317 20.39 43.2933 20.91 43.12 21.69C42.7733 22.99 42.6 25.98 42.6 30.66L42.21 48.08C42.21 53.54 42.47 56.6167 42.99 57.31C43.1633 57.57 43.38 57.6783 43.64 57.635L47.15 57.31C47.7133 57.31 48.19 57.3533 48.58 57.44C48.9267 57.44 49.1 57.6567 49.1 58.09C49.1 59.2167 48.8183 59.8233 48.255 59.91L44.225 60.17H24.465ZM71.6408 59.52C69.3441 59.52 66.3758 59.8233 62.7358 60.43C61.6524 60.43 61.1108 59.8667 61.1108 58.74C61.1108 57.9167 61.3274 57.3967 61.7608 57.18C62.2374 56.9633 62.7791 56.855 63.3858 56.855C63.9924 56.8117 64.5774 56.7683 65.1408 56.725C65.7474 56.6817 66.1591 56.4433 66.3758 56.01V55.36L66.4408 53.345V52.695C66.4408 47.495 66.0074 43.01 65.1408 39.24C64.6208 38.46 63.9924 38.005 63.2558 37.875C62.5191 37.745 61.8041 37.68 61.1108 37.68C60.4608 37.6367 59.8758 37.55 59.3558 37.42C58.8791 37.2467 58.6408 36.8567 58.6408 36.25C58.6408 35.6433 58.9441 35.1667 59.5508 34.82C60.2008 34.4733 60.9374 34.17 61.7608 33.91C62.6274 33.65 63.4508 33.4333 64.2308 33.26C65.0541 33.0433 65.9641 32.74 66.9608 32.35L71.0558 30.855C72.8324 30.205 74.3274 29.88 75.5408 29.88C76.7541 29.88 77.4258 30.01 77.5558 30.27C77.7291 30.4867 77.8158 31.0283 77.8158 31.895C77.8158 32.7617 77.6858 33.455 77.4258 33.975L77.3608 45.22C77.3608 47.6033 77.4258 49.1417 77.5558 49.835C77.7291 50.745 77.9891 51.85 78.3358 53.15C78.7258 54.45 79.1808 55.3383 79.7008 55.815C80.2208 56.2483 80.7624 56.66 81.3258 57.05L82.8858 57.96C83.3191 58.2633 83.5358 58.5233 83.5358 58.74C83.5358 59.4767 83.2758 59.9317 82.7558 60.105C82.2358 60.3217 81.6508 60.43 81.0008 60.43L80.2208 60.365C78.4008 59.8017 75.5408 59.52 71.6408 59.52ZM67.4808 27.54C64.5774 27.54 63.1258 25.85 63.1258 22.47C63.1258 19.0467 65.0324 16.3817 68.8458 14.475C70.6658 14.475 72.1174 14.995 73.2008 16.035C74.3274 17.0317 74.8908 18.4183 74.8908 20.195C74.8908 21.9717 74.0674 23.64 72.4208 25.2C70.7741 26.76 69.1274 27.54 67.4808 27.54ZM93.1314 28.71L92.7414 25.005H92.6764C92.4597 25.005 91.6581 25.135 90.2714 25.395C89.7947 25.395 89.3397 25.2217 88.9064 24.875C88.4731 24.5283 88.2564 24.095 88.2564 23.575C88.2564 23.0117 88.4514 22.5783 88.8414 22.275C89.2747 21.9283 89.8164 21.6467 90.4664 21.43C91.2031 21.17 92.7847 20.8667 95.2114 20.52L96.3814 20.585C97.0747 20.4983 97.7681 20.26 98.4614 19.87L100.411 18.83C101.798 18.05 102.946 17.66 103.856 17.66C104.81 17.66 105.351 17.92 105.481 18.44C105.655 18.9167 105.741 19.5017 105.741 20.195L105.611 20.91C105.135 23.77 104.896 25.6767 104.896 26.63C104.896 27.5833 104.896 28.32 104.896 28.84L105.026 30.4C105.026 30.92 105.026 31.3967 105.026 31.83C105.07 32.2633 105.091 32.5667 105.091 32.74C106.088 32.74 107.063 32.6533 108.016 32.48C108.97 32.3067 109.966 32.22 111.006 32.22C112.09 32.22 112.631 32.6533 112.631 33.52C112.631 34.0833 112.501 34.5167 112.241 34.82C111.028 34.82 109.555 34.9283 107.821 35.145C106.088 35.3617 105.135 35.4917 104.961 35.535C104.615 35.7517 104.268 36.9217 103.921 39.045C103.575 41.1683 103.38 42.5767 103.336 43.27C103.336 43.92 103.293 44.57 103.206 45.22C103.12 45.87 103.011 46.5417 102.881 47.235C102.578 48.8383 102.426 50.5717 102.426 52.435C102.426 53.3017 102.751 54.1033 103.401 54.84C104.051 55.5767 104.831 55.945 105.741 55.945L108.211 55.815C108.818 55.815 109.36 55.9017 109.836 56.075C110.356 56.2483 110.616 56.66 110.616 57.31C110.616 57.3533 110.595 57.3967 110.551 57.44V57.505C109.165 59.4117 105.785 60.365 100.411 60.365C96.9014 60.365 94.3664 59.13 92.8064 56.66C91.6364 54.84 91.0514 52.3483 91.0514 49.185C91.0514 48.665 91.3547 45.22 91.9614 38.85L91.8314 35.99H83.8364C83.5331 35.99 83.3164 35.795 83.1864 35.405C83.0131 35.015 82.9264 34.7117 82.9264 34.495C82.9264 33.845 83.2297 33.39 83.8364 33.13C89.3397 32.7833 92.3081 32.5017 92.7414 32.285C93.0014 30.725 93.1314 29.5333 93.1314 28.71ZM126.865 59.52C124.569 59.52 121.6 59.8233 117.96 60.43C116.877 60.43 116.335 59.8667 116.335 58.74C116.335 57.9167 116.552 57.3967 116.985 57.18C117.462 56.9633 118.004 56.855 118.61 56.855C119.217 56.8117 119.802 56.7683 120.365 56.725C120.972 56.6817 121.384 56.4433 121.6 56.01V55.36L121.665 53.345V52.695C121.665 47.495 121.232 43.01 120.365 39.24C119.845 38.46 119.217 38.005 118.48 37.875C117.744 37.745 117.029 37.68 116.335 37.68C115.685 37.6367 115.1 37.55 114.58 37.42C114.104 37.2467 113.865 36.8567 113.865 36.25C113.865 35.6433 114.169 35.1667 114.775 34.82C115.425 34.4733 116.162 34.17 116.985 33.91C117.852 33.65 118.675 33.4333 119.455 33.26C120.279 33.0433 121.189 32.74 122.185 32.35L126.28 30.855C128.057 30.205 129.552 29.88 130.765 29.88C131.979 29.88 132.65 30.01 132.78 30.27C132.954 30.4867 133.04 31.0283 133.04 31.895C133.04 32.7617 132.91 33.455 132.65 33.975L132.585 45.22C132.585 47.6033 132.65 49.1417 132.78 49.835C132.954 50.745 133.214 51.85 133.56 53.15C133.95 54.45 134.405 55.3383 134.925 55.815C135.445 56.2483 135.987 56.66 136.55 57.05L138.11 57.96C138.544 58.2633 138.76 58.5233 138.76 58.74C138.76 59.4767 138.5 59.9317 137.98 60.105C137.46 60.3217 136.875 60.43 136.225 60.43L135.445 60.365C133.625 59.8017 130.765 59.52 126.865 59.52ZM122.705 27.54C119.802 27.54 118.35 25.85 118.35 22.47C118.35 19.0467 120.257 16.3817 124.07 14.475C125.89 14.475 127.342 14.995 128.425 16.035C129.552 17.0317 130.115 18.4183 130.115 20.195C130.115 21.9717 129.292 23.64 127.645 25.2C125.999 26.76 124.352 27.54 122.705 27.54Z" fill="#FF9900"/>
<path d="M8.34961 107.746V70.1484C8.34961 67.1862 8.10547 65.2493 7.61719 64.3379C7.12891 63.459 6.11979 62.8568 4.58984 62.5312L1.70898 61.9453V59.8945H22.2168C27.2949 59.8945 31.25 61.099 34.082 63.5078C36.9141 65.9167 38.3464 69.1393 38.3789 73.1758C38.3789 77.2122 36.7839 80.6302 33.5938 83.4297C32.1615 84.6992 30.6152 85.6432 28.9551 86.2617C33.4147 86.6849 36.7839 88.3451 39.0625 91.2422C41.3411 94.1393 42.4805 97.7689 42.4805 102.131C42.4805 106.525 40.5111 110.269 36.5723 113.361C32.6335 116.454 26.9206 118 19.4336 118H1.70898V115.949L4.54102 115.363C6.33138 115.005 7.4056 114.289 7.76367 113.215C8.1543 112.141 8.34961 110.318 8.34961 107.746ZM19.043 87.8242H14.8926V114.973C22.6725 114.973 27.9948 113.801 30.8594 111.457C33.724 109.113 35.1562 105.614 35.1562 100.959C35.1562 93.6022 31.6569 89.3542 24.6582 88.2148C23.0957 87.9544 21.224 87.8242 19.043 87.8242ZM19.6777 62.9219H14.8926V84.7969H19.1895C24.9186 84.7969 28.6133 82.5671 30.2734 78.1074C30.7943 76.6751 31.0547 75.1452 31.0547 73.5176C30.9896 66.4863 27.1973 62.9544 19.6777 62.9219ZM48.6816 80.6953V78.7422H59.8633V99.1523C59.8633 99.6081 59.8145 101.171 59.7168 103.84C59.4564 111.424 62.1094 115.249 67.6758 115.314C70.7682 115.314 73.4538 114.077 75.7324 111.604C78.0111 109.13 79.1504 106.33 79.1504 103.205V91.3398C79.1504 87.0104 78.9551 84.2598 78.5645 83.0879C78.0436 81.5254 76.1882 80.7441 72.998 80.7441V78.7422H85.2051V107.404C85.2051 110.952 85.9375 113.068 87.4023 113.752C88.0859 114.045 89.388 114.143 91.3086 114.045L91.5527 115.754L80.9082 119.416L79.1504 112.971L77.5391 114.533C73.7305 117.821 69.7266 119.481 65.5273 119.514C60.319 119.514 56.8848 117.528 55.2246 113.557C54.248 111.213 53.7598 108.023 53.7598 103.986V88.7031C53.7598 84.6992 52.9297 82.1602 51.2695 81.0859C50.5208 80.6302 49.6582 80.5 48.6816 80.6953ZM123.242 85.1387L117.92 84.5039C115.251 84.5365 113.07 85.8874 111.377 88.5566C110.791 89.5332 110.498 91.0143 110.498 93V110.383C110.498 112.792 111.556 114.403 113.672 115.217C113.704 115.249 114.29 115.428 115.43 115.754C116.569 116.047 117.188 116.21 117.285 116.242V118H98.7793V116.242C98.877 116.177 99.2025 116.079 99.7559 115.949C102.1 115.396 103.597 114.533 104.248 113.361C104.574 112.71 104.753 111.994 104.785 111.213V87.1895C104.785 85.627 103.955 84.6829 102.295 84.3574C101.807 84.2598 100.749 84.1784 99.1211 84.1133L98.877 82.4043L110.889 77.8145L110.986 85.5293L112.695 83.7227C116.374 80.3047 119.971 78.5957 123.486 78.5957C125.57 78.5957 126.628 79.6048 126.66 81.623C126.66 83.2507 125.993 84.3411 124.658 84.8945C124.202 85.0573 123.73 85.1387 123.242 85.1387ZM169.531 82.2578H161.475C161.768 83.2344 161.995 84.9596 162.158 87.4336C162.354 89.9076 162.451 91.4212 162.451 91.9746C162.451 98.3874 159.652 102.814 154.053 105.256C150.7 106.721 147.396 107.274 144.141 106.916C141.569 108.967 140.023 110.432 139.502 111.311C139.014 112.189 138.77 113.101 138.77 114.045C138.77 116.193 141.276 117.43 146.289 117.756C147.526 117.821 150.374 117.854 154.834 117.854C159.326 117.854 162.907 118.977 165.576 121.223C168.245 123.469 169.58 126.317 169.58 129.768C169.58 135.041 167.48 139.826 163.281 144.123C159.082 148.42 153.174 150.568 145.557 150.568C142.399 150.568 139.323 149.689 136.328 147.932C132.161 145.393 130.062 142.072 130.029 137.971C130.029 132.632 132.894 127.912 138.623 123.811L140.723 122.395C137.109 121.288 134.684 120.214 133.447 119.172C132.145 118.033 131.494 116.812 131.494 115.51C131.527 113.589 132.943 111.49 135.742 109.211C136.979 108.234 138.428 107.16 140.088 105.988C138.656 105.142 136.979 103.612 135.059 101.398C133.138 99.1849 132.178 96.5482 132.178 93.4883C132.178 87.987 133.708 83.9993 136.768 81.5254C139.86 79.0514 143.327 77.8145 147.168 77.8145C150.423 77.8796 153.304 78.0911 155.811 78.4492C158.317 78.8073 160.091 78.9863 161.133 78.9863H169.531V82.2578ZM141.309 145.246C143.066 146.158 144.824 146.63 146.582 146.662C151.986 146.662 156.136 145.197 159.033 142.268C161.93 139.37 163.428 136.327 163.525 133.137C163.46 126.594 159.668 123.306 152.148 123.273C149.349 123.273 147.493 123.322 146.582 123.42C145.703 123.518 144.466 123.811 142.871 124.299C138.509 128.661 136.328 132.665 136.328 136.311C136.328 140.477 137.988 143.456 141.309 145.246ZM147.217 80.7441C141.195 80.8092 138.167 85.0085 138.135 93.3418C138.135 96.2715 138.867 98.778 140.332 100.861C141.797 102.912 143.929 103.954 146.729 103.986C151.318 103.986 154.281 101.545 155.615 96.6621C156.038 95.0345 156.266 93.293 156.299 91.4375C156.299 87.401 155.16 84.4388 152.881 82.5508C151.351 81.3464 149.463 80.7441 147.217 80.7441ZM190.332 77.668C196.582 77.668 200.505 80.1094 202.1 84.9922C202.816 87.2057 203.011 89.3704 202.686 91.4863H179.297C178.874 93.8301 178.662 96.0111 178.662 98.0293C178.662 104.898 180.713 109.585 184.814 112.092C186.995 113.426 189.616 114.094 192.676 114.094C195.866 114.094 199.072 112.922 202.295 110.578L203.711 112.043L202.344 113.654C198.633 117.528 194.238 119.481 189.16 119.514C186.133 119.514 183.333 118.602 180.762 116.779C175.586 113.101 172.998 107.535 172.998 100.08C172.998 92.2025 175.195 86.2292 179.59 82.1602C182.91 79.263 186.491 77.7656 190.332 77.668ZM179.785 88.3125H196.387C196.387 85.7409 195.801 83.8366 194.629 82.5996C193.457 81.3301 191.96 80.6953 190.137 80.6953C187.305 80.6953 184.993 81.5417 183.203 83.2344C181.413 84.8945 180.273 86.5872 179.785 88.3125ZM234.961 85.1387L229.639 84.5039C226.969 84.5365 224.788 85.8874 223.096 88.5566C222.51 89.5332 222.217 91.0143 222.217 93V110.383C222.217 112.792 223.275 114.403 225.391 115.217C225.423 115.249 226.009 115.428 227.148 115.754C228.288 116.047 228.906 116.21 229.004 116.242V118H210.498V116.242C210.596 116.177 210.921 116.079 211.475 115.949C213.818 115.396 215.316 114.533 215.967 113.361C216.292 112.71 216.471 111.994 216.504 111.213V87.1895C216.504 85.627 215.674 84.6829 214.014 84.3574C213.525 84.2598 212.467 84.1784 210.84 84.1133L210.596 82.4043L222.607 77.8145L222.705 85.5293L224.414 83.7227C228.092 80.3047 231.689 78.5957 235.205 78.5957C237.288 78.5957 238.346 79.6048 238.379 81.623C238.379 83.2507 237.712 84.3411 236.377 84.8945C235.921 85.0573 235.449 85.1387 234.961 85.1387Z" fill="#FF9900"/>
<path d="M158 35C158 33.3431 159.343 32 161 32H231C232.657 32 234 33.3431 234 35V35C234 37.2091 232.209 39 230 39H161C159.343 39 158 37.6569 158 36V35Z" fill="#8A701D"/>
<path d="M158 47C158 45.3431 159.343 44 161 44H231C232.657 44 234 45.3431 234 47V50C234 52.2091 232.209 54 230 54H161C159.343 54 158 52.6569 158 51V47Z" fill="#66332E"/>
<path d="M158 59H234V63C234 66.866 230.866 70 227 70H165C161.134 70 158 66.866 158 63V59Z" fill="#B6571C"/>
<path fill-rule="evenodd" clip-rule="evenodd" d="M231 27H161C163.451 16.8231 178.187 9 196 9C213.813 9 228.549 16.8231 231 27Z" fill="#B6571C"/>
<path d="M34.32 174.18C33.1733 174.18 32.28 173.94 31.64 173.46C31.0133 172.98 30.5733 172.333 30.32 171.52C30.08 170.707 29.96 169.8 29.96 168.8V163.08C29.96 161.987 30.08 161.033 30.32 160.22C30.5733 159.407 31.0133 158.78 31.64 158.34C32.28 157.887 33.1733 157.66 34.32 157.66C35.3333 157.66 36.1333 157.847 36.72 158.22C37.32 158.593 37.7467 159.127 38 159.82C38.2667 160.513 38.4 161.347 38.4 162.32V163.6H36.26V162.46C36.26 161.86 36.2267 161.333 36.16 160.88C36.1067 160.413 35.9467 160.053 35.68 159.8C35.4133 159.547 34.9667 159.42 34.34 159.42C33.7 159.42 33.2333 159.56 32.94 159.84C32.6467 160.107 32.4533 160.493 32.36 161C32.28 161.493 32.24 162.073 32.24 162.74V169.16C32.24 169.973 32.3067 170.62 32.44 171.1C32.5733 171.567 32.7933 171.9 33.1 172.1C33.4067 172.3 33.82 172.4 34.34 172.4C34.9533 172.4 35.3933 172.267 35.66 172C35.9267 171.72 36.0933 171.34 36.16 170.86C36.2267 170.38 36.26 169.82 36.26 169.18V167.98H38.4V169.18C38.4 170.167 38.28 171.04 38.04 171.8C37.8 172.547 37.3867 173.133 36.8 173.56C36.2133 173.973 35.3867 174.18 34.32 174.18ZM40.853 163.1L40.473 162.3C40.8863 162.273 41.1663 162.08 41.313 161.72C41.473 161.36 41.553 160.807 41.553 160.06H40.493V157.8H42.833C42.833 158.12 42.833 158.447 42.833 158.78C42.833 159.1 42.833 159.42 42.833 159.74C42.833 160.78 42.6863 161.593 42.393 162.18C42.0996 162.753 41.5863 163.06 40.853 163.1ZM44.7131 174V157.8H50.9931V159.48H46.9731V164.84H50.2331V166.44H46.9731V172.38H51.0331V174H44.7131ZM56.6777 174.18C55.7443 174.18 54.9643 173.98 54.3377 173.58C53.7243 173.18 53.2577 172.627 52.9377 171.92C52.6177 171.213 52.431 170.393 52.3777 169.46L54.3777 168.92C54.4177 169.493 54.5043 170.047 54.6377 170.58C54.7843 171.113 55.0177 171.553 55.3377 171.9C55.6577 172.233 56.1043 172.4 56.6777 172.4C57.2643 172.4 57.7043 172.24 57.9977 171.92C58.3043 171.587 58.4577 171.113 58.4577 170.5C58.4577 169.767 58.291 169.18 57.9577 168.74C57.6243 168.287 57.2043 167.833 56.6977 167.38L53.9777 164.98C53.4443 164.513 53.051 164.007 52.7977 163.46C52.5443 162.9 52.4177 162.213 52.4177 161.4C52.4177 160.213 52.7577 159.293 53.4377 158.64C54.1177 157.987 55.0443 157.66 56.2177 157.66C56.8577 157.66 57.4177 157.747 57.8977 157.92C58.391 158.08 58.7977 158.333 59.1177 158.68C59.451 159.027 59.711 159.467 59.8977 160C60.0977 160.52 60.231 161.133 60.2977 161.84L58.3777 162.36C58.3377 161.827 58.2577 161.34 58.1377 160.9C58.0177 160.447 57.8043 160.087 57.4977 159.82C57.2043 159.54 56.7777 159.4 56.2177 159.4C55.6577 159.4 55.2177 159.553 54.8977 159.86C54.591 160.153 54.4377 160.593 54.4377 161.18C54.4377 161.673 54.5177 162.08 54.6777 162.4C54.851 162.72 55.1243 163.047 55.4977 163.38L58.2377 165.78C58.851 166.313 59.391 166.953 59.8577 167.7C60.3243 168.433 60.5577 169.307 60.5577 170.32C60.5577 171.12 60.391 171.813 60.0577 172.4C59.7243 172.973 59.2643 173.413 58.6777 173.72C58.1043 174.027 57.4377 174.18 56.6777 174.18ZM64.0908 174V159.48H61.3508V157.8H69.0108V159.48H66.3508V174H64.0908ZM74.0228 174.38V172.76C74.5161 172.76 74.9161 172.727 75.2228 172.66C75.5295 172.593 75.7628 172.473 75.9228 172.3C76.0961 172.127 76.2161 171.88 76.2828 171.56C76.3495 171.227 76.3828 170.807 76.3828 170.3V157.8H78.6228V170.34C78.6228 171.273 78.5228 172.04 78.3228 172.64C78.1228 173.227 77.7695 173.667 77.2628 173.96C76.7561 174.24 76.0361 174.38 75.1028 174.38H74.0228ZM85.3384 174.18C84.1651 174.18 83.2651 173.947 82.6384 173.48C82.0118 173.013 81.5851 172.36 81.3584 171.52C81.1318 170.667 81.0184 169.673 81.0184 168.54V157.8H83.1784V168.64C83.1784 169.333 83.2251 169.967 83.3184 170.54C83.4118 171.113 83.6118 171.567 83.9184 171.9C84.2384 172.233 84.7118 172.4 85.3384 172.4C85.9784 172.4 86.4518 172.233 86.7584 171.9C87.0651 171.567 87.2651 171.113 87.3584 170.54C87.4518 169.967 87.4984 169.333 87.4984 168.64V157.8H89.6384V168.54C89.6384 169.673 89.5251 170.667 89.2984 171.52C89.0718 172.36 88.6451 173.013 88.0184 173.48C87.4051 173.947 86.5118 174.18 85.3384 174.18ZM95.8378 174.18C94.9045 174.18 94.1245 173.98 93.4978 173.58C92.8845 173.18 92.4178 172.627 92.0978 171.92C91.7778 171.213 91.5911 170.393 91.5378 169.46L93.5378 168.92C93.5778 169.493 93.6645 170.047 93.7978 170.58C93.9445 171.113 94.1778 171.553 94.4978 171.9C94.8178 172.233 95.2645 172.4 95.8378 172.4C96.4245 172.4 96.8645 172.24 97.1578 171.92C97.4645 171.587 97.6178 171.113 97.6178 170.5C97.6178 169.767 97.4511 169.18 97.1178 168.74C96.7845 168.287 96.3645 167.833 95.8578 167.38L93.1378 164.98C92.6045 164.513 92.2111 164.007 91.9578 163.46C91.7045 162.9 91.5778 162.213 91.5778 161.4C91.5778 160.213 91.9178 159.293 92.5978 158.64C93.2778 157.987 94.2045 157.66 95.3778 157.66C96.0178 157.66 96.5778 157.747 97.0578 157.92C97.5511 158.08 97.9578 158.333 98.2778 158.68C98.6111 159.027 98.8711 159.467 99.0578 160C99.2578 160.52 99.3911 161.133 99.4578 161.84L97.5378 162.36C97.4978 161.827 97.4178 161.34 97.2978 160.9C97.1778 160.447 96.9645 160.087 96.6578 159.82C96.3645 159.54 95.9378 159.4 95.3778 159.4C94.8178 159.4 94.3778 159.553 94.0578 159.86C93.7511 160.153 93.5978 160.593 93.5978 161.18C93.5978 161.673 93.6778 162.08 93.8378 162.4C94.0111 162.72 94.2845 163.047 94.6578 163.38L97.3978 165.78C98.0111 166.313 98.5511 166.953 99.0178 167.7C99.4845 168.433 99.7178 169.307 99.7178 170.32C99.7178 171.12 99.5511 171.813 99.2178 172.4C98.8845 172.973 98.4245 173.413 97.8378 173.72C97.2645 174.027 96.5978 174.18 95.8378 174.18ZM103.251 174V159.48H100.511V157.8H108.171V159.48H105.511V174H103.251ZM109.733 174V157.8H116.013V159.48H111.993V164.84H115.253V166.44H111.993V172.38H116.053V174H109.733ZM126.628 174.18C125.454 174.18 124.554 173.947 123.928 173.48C123.301 173.013 122.874 172.36 122.648 171.52C122.421 170.667 122.308 169.673 122.308 168.54V157.8H124.468V168.64C124.468 169.333 124.514 169.967 124.608 170.54C124.701 171.113 124.901 171.567 125.208 171.9C125.528 172.233 126.001 172.4 126.628 172.4C127.268 172.4 127.741 172.233 128.048 171.9C128.354 171.567 128.554 171.113 128.648 170.54C128.741 169.967 128.788 169.333 128.788 168.64V157.8H130.928V168.54C130.928 169.673 130.814 170.667 130.588 171.52C130.361 172.36 129.934 173.013 129.308 173.48C128.694 173.947 127.801 174.18 126.628 174.18ZM133.307 174V157.8H134.847L139.447 168.56V157.8H141.327V174H139.887L135.227 162.94V174H133.307ZM148.444 174V157.8H152.164C152.897 157.8 153.53 157.88 154.064 158.04C154.61 158.2 155.064 158.447 155.424 158.78C155.784 159.113 156.05 159.54 156.224 160.06C156.397 160.567 156.484 161.167 156.484 161.86C156.484 162.527 156.397 163.107 156.224 163.6C156.064 164.08 155.81 164.46 155.464 164.74C155.13 165.02 154.697 165.2 154.164 165.28C154.817 165.427 155.344 165.68 155.744 166.04C156.144 166.387 156.437 166.84 156.624 167.4C156.824 167.947 156.924 168.607 156.924 169.38C156.924 170.073 156.844 170.707 156.684 171.28C156.524 171.853 156.27 172.34 155.924 172.74C155.59 173.14 155.157 173.453 154.624 173.68C154.104 173.893 153.484 174 152.764 174H148.444ZM150.704 172.38H152.224C153.237 172.38 153.91 172.147 154.244 171.68C154.59 171.2 154.764 170.433 154.764 169.38C154.764 168.7 154.67 168.133 154.484 167.68C154.31 167.213 154.024 166.867 153.624 166.64C153.237 166.4 152.71 166.28 152.044 166.28H150.704V172.38ZM150.704 164.56H152.044C152.684 164.56 153.184 164.473 153.544 164.3C153.904 164.113 154.157 163.82 154.304 163.42C154.45 163.02 154.524 162.5 154.524 161.86C154.524 161.113 154.41 160.573 154.184 160.24C153.957 159.907 153.604 159.7 153.124 159.62C152.644 159.527 152.017 159.48 151.244 159.48H150.704V164.56ZM163.112 174.18C161.939 174.18 161.039 173.947 160.412 173.48C159.785 173.013 159.359 172.36 159.132 171.52C158.905 170.667 158.792 169.673 158.792 168.54V157.8H160.952V168.64C160.952 169.333 160.999 169.967 161.092 170.54C161.185 171.113 161.385 171.567 161.692 171.9C162.012 172.233 162.485 172.4 163.112 172.4C163.752 172.4 164.225 172.233 164.532 171.9C164.839 171.567 165.039 171.113 165.132 170.54C165.225 169.967 165.272 169.333 165.272 168.64V157.8H167.412V168.54C167.412 169.673 167.299 170.667 167.072 171.52C166.845 172.36 166.419 173.013 165.792 173.48C165.179 173.947 164.285 174.18 163.112 174.18ZM169.791 174V157.8H173.051C174.131 157.8 175.025 157.947 175.731 158.24C176.438 158.52 176.958 158.98 177.291 159.62C177.638 160.247 177.811 161.073 177.811 162.1C177.811 162.727 177.745 163.3 177.611 163.82C177.478 164.327 177.265 164.76 176.971 165.12C176.678 165.467 176.291 165.72 175.811 165.88L178.111 174H175.931L173.811 166.4H172.051V174H169.791ZM172.051 164.78H172.911C173.551 164.78 174.071 164.7 174.471 164.54C174.871 164.38 175.165 164.107 175.351 163.72C175.538 163.333 175.631 162.793 175.631 162.1C175.631 161.153 175.458 160.473 175.111 160.06C174.765 159.633 174.078 159.42 173.051 159.42H172.051V164.78ZM184.022 174.2C183.009 174.2 182.196 173.987 181.582 173.56C180.982 173.12 180.542 172.487 180.262 171.66C179.996 170.833 179.862 169.84 179.862 168.68V163.26C179.862 162.073 179.982 161.067 180.222 160.24C180.476 159.4 180.916 158.76 181.542 158.32C182.182 157.88 183.069 157.66 184.202 157.66C185.216 157.66 186.029 157.833 186.642 158.18C187.269 158.513 187.722 159.033 188.002 159.74C188.282 160.433 188.422 161.313 188.422 162.38V162.98H186.302V162.48C186.302 161.773 186.256 161.2 186.162 160.76C186.069 160.307 185.876 159.973 185.582 159.76C185.302 159.533 184.856 159.42 184.242 159.42C183.576 159.42 183.089 159.573 182.782 159.88C182.489 160.187 182.302 160.607 182.222 161.14C182.156 161.66 182.122 162.253 182.122 162.92V168.92C182.122 169.693 182.176 170.34 182.282 170.86C182.402 171.38 182.622 171.767 182.942 172.02C183.262 172.273 183.716 172.4 184.302 172.4C184.889 172.4 185.342 172.26 185.662 171.98C185.982 171.7 186.202 171.287 186.322 170.74C186.442 170.193 186.502 169.513 186.502 168.7V167.58H184.442V165.98H188.542V174H187.122L186.902 172.14C186.689 172.74 186.356 173.233 185.902 173.62C185.449 174.007 184.822 174.2 184.022 174.2ZM190.865 174V157.8H197.145V159.48H193.125V164.84H196.385V166.44H193.125V172.38H197.185V174H190.865ZM199.01 174V157.8H202.27C203.35 157.8 204.243 157.947 204.95 158.24C205.657 158.52 206.177 158.98 206.51 159.62C206.857 160.247 207.03 161.073 207.03 162.1C207.03 162.727 206.963 163.3 206.83 163.82C206.697 164.327 206.483 164.76 206.19 165.12C205.897 165.467 205.51 165.72 205.03 165.88L207.33 174H205.15L203.03 166.4H201.27V174H199.01ZM201.27 164.78H202.13C202.77 164.78 203.29 164.7 203.69 164.54C204.09 164.38 204.383 164.107 204.57 163.72C204.757 163.333 204.85 162.793 204.85 162.1C204.85 161.153 204.677 160.473 204.33 160.06C203.983 159.633 203.297 159.42 202.27 159.42H201.27V164.78Z" fill="#FF9900"/>
</svg>
